<?xml version="1.0" encoding="utf-8"?>
<!-- Generator: Adobe Illustrator 25.2.3, SVG Export Plug-In . SVG Version: 6.00 Build 0)  -->
<svg version="1.1" id="Layer_1" xmlns="http://www.w3.org/2000/svg" xmlns:xlink="http://www.w3.org/1999/xlink" x="0px" y="0px"
	 viewBox="0 0 121.7 130.4" style="enable-background:new 0 0 121.7 130.4;" xml:space="preserve">
<g id="Stamp-Contract-Certification-Document-Business" transform="translate(0 0)">
	<path id="Path_259" d="M89,125.9H10.8c-3.6,0-6.5-2.9-6.5-6.5l0,0V10.7c0-3.6,2.9-6.5,6.5-6.5l0,0h67.3v10.9c0,3.6,2.9,6.5,6.5,6.5
		h10.9v17.4h4.3V19.4c0-0.6-0.2-1.1-0.6-1.5L81.8,0.5c-0.4-0.4-1-0.6-1.5-0.6H10.8c-6,0-10.9,4.9-10.9,10.9v108.6
		c0,6,4.9,10.9,10.9,10.9H89c2.6,0,5.2-1,7.2-2.7l-2.9-3.3C92.1,125.3,90.6,125.9,89,125.9z M82.5,15.1V7.3l10,10h-7.8
		C83.4,17.2,82.5,16.3,82.5,15.1L82.5,15.1z"/>
	<path id="Path_260" d="M115.1,95.4h-4.3c0-0.4-0.1-0.8-0.4-1.2l-2.9-4.3c-0.7-1.1-1.1-2.3-1.1-3.6v-6.1c0-3.4,1.1-6.6,3.2-9.3
		c5.7-7.8,4-18.6-3.8-24.3c-7.8-5.7-18.6-4-24.3,3.8c-2.2,3-3.3,6.6-3.3,10.2c0,3.8,1.2,7.5,3.6,10.6c1.9,2.6,3,5.7,2.9,9v6.1
		c0,1.3-0.4,2.5-1.1,3.6l-2.9,4.3c-0.2,0.4-0.4,0.8-0.4,1.2H76c-3.6,0-6.5,2.9-6.5,6.5v8.7c0,1.2,1,2.2,2.2,2.2l0,0h2.2v6.5
		c0,1.2,1,2.2,2.2,2.2l0,0h39.1c1.2,0,2.2-1,2.2-2.2v-6.5h2.2c1.2,0,2.2-1,2.2-2.2c0,0,0,0,0,0V102
		C121.6,98.4,118.7,95.4,115.1,95.4z M82.5,60.7c0-7.2,5.8-13,13-13s13,5.8,13,13c0,2.8-0.9,5.4-2.5,7.7c-2.6,3.4-4,7.6-4,11.9v6.1
		c0,2.1,0.6,4.2,1.8,6l2.1,3.1H85.1l2.1-3.1c1.2-1.8,1.8-3.9,1.8-6v-6.1c0-4.2-1.3-8.2-3.8-11.6C83.4,66.3,82.5,63.6,82.5,60.7
		L82.5,60.7z M112.9,117.2H78.1v-4.3h34.8V117.2z M117.2,108.5H73.8V102c0-1.2,1-2.2,2.2-2.2l0,0h39.1c1.2,0,2.2,1,2.2,2.2V108.5z"
		/>
	<path id="Path_261" d="M34.7,117.2c12,0,21.7-9.7,21.7-21.7c0-12-9.7-21.7-21.7-21.7c-12,0-21.7,9.7-21.7,21.7
		C13,107.4,22.7,117.2,34.7,117.2C34.7,117.2,34.7,117.2,34.7,117.2z M34.7,78.1c9.6,0,17.4,7.8,17.4,17.4c0,9.6-7.8,17.4-17.4,17.4
		S17.3,105,17.3,95.4S25.1,78.1,34.7,78.1C34.7,78.1,34.7,78.1,34.7,78.1z"/>
	<path id="Path_262" d="M32.5,104.1c0.6,0,1.1-0.2,1.5-0.6l13-13L44,87.4L32.5,98.9l-5-5L24.5,97l6.5,6.5
		C31.4,103.9,31.9,104.1,32.5,104.1L32.5,104.1z"/>
	<path id="Path_263" d="M52.1,32.4h-4.3c-1.2,0-2.2-1-2.2-2.2l0,0h-4.3c0,3.6,2.9,6.5,6.5,6.5l0,0v2.2h4.3v-2.2c3.6,0,6.5-3,6.4-6.6
		c0-3.5-2.9-6.4-6.4-6.4h-4.3c-1.2,0-2.2-0.9-2.2-2.1c0-1.2,0.9-2.2,2.1-2.2c0,0,0.1,0,0.1,0h4.3c1.2,0,2.2,1,2.2,2.2l0,0h4.3
		c0-3.6-2.9-6.5-6.5-6.5l0,0v-2.2h-4.3v2.2c-3.6,0-6.6,2.8-6.6,6.4c0,3.6,2.8,6.6,6.4,6.6c0.1,0,0.1,0,0.2,0h4.3
		c1.2,0,2.2,1,2.1,2.2C54.2,31.5,53.2,32.4,52.1,32.4z"/>
	<path id="Path_264" d="M62.9,23.7h4.3v4.3h-4.3V23.7z"/>
	<path id="Path_265" d="M32.5,23.7h4.3v4.3h-4.3V23.7z"/>
	<path id="Path_266" d="M13,43.3h8.7v4.3H13V43.3z"/>
	<path id="Path_267" d="M26,43.3h52.1v4.3H26V43.3z"/>
	<path id="Path_268" d="M13,52h60.8v4.3H13V52z"/>
	<path id="Path_269" d="M13,60.7h60.8V65H13V60.7z"/>
	<path id="Path_270" d="M13,69.4h8.7v4.3H13V69.4z"/>
	<path id="Path_271" d="M47.7,69.4h26.1v4.3H47.7V69.4z"/>
	<path id="Path_272" d="M58.6,78.1H76v4.3H58.6V78.1z"/>
</g>
</svg>
