<?xml version="1.0" encoding="utf-8"?>
<!-- Generator: Adobe Illustrator 25.2.3, SVG Export Plug-In . SVG Version: 6.00 Build 0)  -->
<svg version="1.1" id="Layer_1" xmlns="http://www.w3.org/2000/svg" xmlns:xlink="http://www.w3.org/1999/xlink" x="0px" y="0px"
	 viewBox="0 0 134 138.9" style="enable-background:new 0 0 134 138.9;" xml:space="preserve">
<path id="Path_235" d="M105.3,31.1c0-9.1-5.9-23.5-21.9-23.5c-6.5,0-12.1,3.1-16.4,9.2c-4.4-6.1-9.9-9.2-16.4-9.2
	C34.6,7.6,28.7,22,28.7,31.1c0,15.7,12.2,25.4,28.9,39.7c2.5,2.1,5,4.3,7.7,6.6c1,0.9,2.4,0.9,3.4,0c2.7-2.3,5.2-4.5,7.7-6.6
	C93.9,55.9,105.3,46.4,105.3,31.1L105.3,31.1z M67,72c-2.1-1.8-4.1-3.5-6-5.2C43.5,51.9,33.9,43.7,33.9,31.1
	c0-8.5,5.6-18.3,16.7-18.3c5.8,0,10.4,3.3,14.1,10.1c0.7,1.3,2.3,1.7,3.5,1c0.4-0.2,0.8-0.6,1-1c3.7-6.8,8.4-10.1,14.1-10.1
	c10.9,0,16.7,9.6,16.7,18.3c0,12.6-9.6,20.8-27.1,35.7C71.1,68.5,69.1,70.2,67,72L67,72z"/>
<path id="Path_236" d="M19,109.9l12.6,6.3v14c0,1.4,1.2,2.6,2.6,2.6h27.7c1.4,0,2.6-1.2,2.6-2.6V96.2c0-8-6-14.6-13.9-15.4l-0.2,0
	c-4.6-0.5-12.7-3.6-15.9-6.8l-5.9-5.9c-2-2-4.6-3.1-7.4-3.1V44.1c0-5.8-4.7-10.4-10.4-10.4S0.2,38.4,0.2,44.1v35.4
	C0.2,92.4,7.5,104.2,19,109.9L19,109.9z M5.4,44.1c0-2.9,2.3-5.2,5.2-5.2s5.2,2.3,5.2,5.2v22.3c-5,2.9-6.7,9.3-3.8,14.3
	c0.5,0.8,1,1.5,1.7,2.2l13.4,13.4c1,1,2.7,1,3.7,0c1-1,1-2.7,0-3.7L17.4,79.1c-2-2-2-5.3,0-7.4c0.6-0.6,1.2-1,2-1.2l0,0
	c1.9-0.7,4-0.2,5.4,1.2l5.9,5.9c6,6,19.3,8.3,19.3,8.3c5.3,0.5,9.3,4.9,9.3,10.2v31.5H36.7v-13c0-1-0.6-1.9-1.4-2.3l-14-7
	c-9.7-4.8-15.9-14.8-15.9-25.7V44.1z"/>
<ellipse id="Ellipse_124" cx="119" cy="103.4" rx="2.5" ry="2.5"/>
<path id="Path_237" d="M123.4,33.7c-5.8,0-10.4,4.7-10.4,10.4V65c-2.8,0-5.4,1.1-7.4,3.1l-5.9,5.9c-3.2,3.2-11.3,6.3-16,6.8l-0.2,0
	c-7.9,0.8-14,7.4-13.9,15.4v34.1c0,1.4,1.2,2.6,2.6,2.6h27.7c1.4,0,2.6-1.2,2.6-2.6v-14l8.5-4.3c1.3-0.6,1.8-2.2,1.2-3.5
	c-0.6-1.3-2.2-1.8-3.5-1.2l-10,5c-0.9,0.4-1.4,1.3-1.4,2.3v13H74.8V96.2c0-5.3,4-9.7,9.3-10.2l0.2,0c5.7-0.6,15-4.2,19.1-8.3
	l5.9-5.9c1.4-1.4,3.5-1.9,5.4-1.2l0,0c2.7,1,4.1,3.9,3.2,6.7c-0.3,0.7-0.7,1.4-1.2,2l-13.4,13.4c-1,1-1,2.7,0,3.7c1,1,2.7,1,3.7,0
	l13.4-13.4c4.1-4.1,4.1-10.7,0-14.8c-0.6-0.6-1.4-1.2-2.2-1.7V44.1c0-2.9,2.3-5.2,5.2-5.2s5.2,2.3,5.2,5.2v35.4
	c0,4.8-1.2,9.5-3.5,13.7c-0.7,1.3-0.2,2.9,1.1,3.5c1.2,0.6,2.8,0.2,3.5-1c2.7-5,4.1-10.5,4.1-16.2V44.1
	C133.8,38.4,129.1,33.7,123.4,33.7z"/>
</svg>
