<?xml version="1.0" encoding="utf-8"?>
<!-- Generator: Adobe Illustrator 25.2.3, SVG Export Plug-In . SVG Version: 6.00 Build 0)  -->
<svg version="1.1" id="Layer_1" xmlns="http://www.w3.org/2000/svg" xmlns:xlink="http://www.w3.org/1999/xlink" x="0px" y="0px"
	 viewBox="0 0 151.6 118.4" style="enable-background:new 0 0 151.6 118.4;" xml:space="preserve">
<g id="Group_895" transform="translate(0 0)">
	<g id="Group_847" transform="translate(0 0)">
		<path id="Path_238" d="M89.4,84.2c-10,8.5-18.9,18.1-26.6,28.7c-1,1.3-0.8,3.1,0.5,4.1c1.3,1,3.1,0.8,4.1-0.5
			c0-0.1,0.1-0.1,0.1-0.2c7.4-10.2,16-19.5,25.6-27.7c1.3-1,1.4-2.9,0.4-4.1S90.7,83.1,89.4,84.2C89.5,84.1,89.4,84.2,89.4,84.2
			L89.4,84.2z"/>
		<path id="Path_239" d="M150.5,54.8c-0.4-1.1-1.5-1.9-2.7-1.9c-2.9,0-5.8,0.1-8.7,0.2v-5.8c2.8-0.6,5.4-2,7.4-4
			c3.9-4,5.3-9.8,3.5-15.1l-8.2-23.7c-1.1-3.1-4.5-4.7-7.6-3.7c-1.7,0.6-3.1,1.9-3.7,3.7l-8.2,23.7c-1.8,5.3-0.5,11.2,3.5,15.1
			c2,2,4.6,3.4,7.5,4v6.2c-5.9,0.5-11.8,1.3-17.6,2.5V42.7c0-0.4-0.1-0.8-0.3-1.2l-5.8-12.9c-0.5-1-1.5-1.7-2.7-1.7H91.6v-8.8
			c0-0.4-0.1-0.8-0.3-1.2L85.5,4.1C85,3,84,2.3,82.8,2.4h-14c-1.1,0-2.2,0.7-2.7,1.7l-5.8,12.9c-0.2,0.4-0.3,0.8-0.3,1.2v8.8H44.8
			c-1.1,0-2.2,0.7-2.7,1.7l-5.8,12.9c-0.2,0.4-0.3,0.8-0.3,1.2V56c-5.8-1.1-11.7-2-17.6-2.5v-6.2c2.8-0.6,5.4-1.9,7.5-4
			c3.9-4,5.3-9.8,3.5-15.1L21.2,4.6c-1.1-3.1-4.5-4.7-7.6-3.7c-1.7,0.6-3.1,1.9-3.7,3.7L1.8,28.3C0,33.6,1.3,39.4,5.2,43.4
			c2,2,4.6,3.4,7.4,4v5.8c-2.9-0.1-5.8-0.2-8.7-0.2c-1.6,0-2.9,1.3-2.9,2.9c0,1.6,1.3,2.9,2.9,2.9c22.5-0.1,44.8,4.7,65.3,13.9
			c-9.5,5.1-18.4,11.1-26.8,17.9c-11.1-10-23.7-18.2-37.3-24.3c-1.5-0.7-3.2,0-3.9,1.5c-0.7,1.5,0,3.2,1.5,3.9l0,0
			C15.6,77.3,27.4,85,37.9,94.4c-5.3,4.7-10.3,9.7-15,15c-4.8-8.8-10.4-17.1-16.8-24.8c-1.1-1.2-2.9-1.4-4.1-0.3
			c-1.2,1-1.4,2.8-0.4,4c7,8.5,13.1,17.7,18.1,27.6c0.7,1.4,2.5,2,3.9,1.3c0.4-0.2,0.7-0.4,0.9-0.7c26.1-31.4,63.2-51.7,103.7-56.5
			c-5.9,2.6-11.6,5.5-17.1,8.7c-1.4,0.9-1.8,2.7-0.9,4c0.8,1.3,2.5,1.8,3.9,1c7-4.1,14.3-7.7,21.8-10.6
			c-14.4,14.8-26.5,31.8-35.8,50.2c-0.7,1.4-0.1,3.2,1.3,3.9c1.4,0.7,3.2,0.1,3.9-1.3c11.1-21.9,26-41.5,44.2-57.9
			C150.6,57.2,150.9,55.9,150.5,54.8L150.5,54.8z M127.8,30.2l8.2-23.7l0-0.1c0,0,0.1,0,0.1,0c0,0,0,0,0,0.1l8.2,23.7
			c1.1,3.2,0.3,6.7-2.1,9.1c-3.4,3.4-9,3.4-12.4,0C127.5,36.9,126.7,33.4,127.8,30.2L127.8,30.2z M7.3,30.2l8.2-23.7l0-0.1
			c0,0,0.1,0,0.1,0c0,0,0,0,0,0.1l8.2,23.7c1.6,4.6-0.8,9.6-5.4,11.2c-4.6,1.6-9.6-0.8-11.2-5.4C6.6,34.1,6.6,32.1,7.3,30.2
			L7.3,30.2z M100.7,51.3c-1.6,0-2.9,1.3-2.9,2.9c0,0,0,0,0,0v6.3c-2.1,0.6-4.1,1.3-6.1,2.1v-17h18.1v11.6c-2.1,0.5-4.1,1-6.1,1.6
			v-4.6C103.6,52.6,102.3,51.3,100.7,51.3C100.7,51.3,100.7,51.3,100.7,51.3L100.7,51.3z M75.8,58.2c-1.6,0-2.9,1.3-2.9,2.9v6.8
			c-2.3-1.1-4.7-2.1-7-3V45.6h19.9v19.3c-2.4,0.9-4.7,2-7,3v-6.8C78.7,59.5,77.4,58.2,75.8,58.2L75.8,58.2z M85.8,21.1v18.7h-7v-7.5
			c0-1.6-1.3-2.9-2.9-3c-1.6,0-2.9,1.3-3,2.9c0,0,0,0.1,0,0.1v7.5h-7V21.1L85.8,21.1z M104.9,32.8l3.2,7H91.6v-7H104.9z M70.7,8.2
			h10.3l3.2,7H67.5L70.7,8.2z M46.7,32.8H60v7H43.5L46.7,32.8z M41.9,45.7H60v17c-2-0.7-4.1-1.4-6.1-2.1v-6.3c0-1.6-1.3-2.9-2.9-2.9
			c-1.6,0-2.9,1.3-2.9,2.9l0,0v4.6c-2-0.6-4.1-1.1-6.1-1.6L41.9,45.7z"/>
		<path id="Path_240" d="M103.8,80.4c1.1-1.1,1.1-3,0-4.1c-1.1-1.1-3-1.1-4.1,0c-1.1,1.1-1.1,3,0,4.1c0.5,0.5,1.3,0.9,2.1,0.9
			C102.5,81.3,103.2,81,103.8,80.4z"/>
	</g>
</g>
</svg>
