<?xml version="1.0" encoding="utf-8"?>
<!-- Generator: Adobe Illustrator 25.2.3, SVG Export Plug-In . SVG Version: 6.00 Build 0)  -->
<svg version="1.1" id="Layer_1" xmlns="http://www.w3.org/2000/svg" xmlns:xlink="http://www.w3.org/1999/xlink" x="0px" y="0px"
	 viewBox="0 0 104 131" style="enable-background:new 0 0 104 131;" xml:space="preserve">
<g id="Group_907" transform="translate(0 0)">
	<g id="Group_873" transform="translate(0 0)">
		<path id="Path_274" d="M102.1,45.6c1.1,0,1.9-0.9,1.9-1.9V25.2c0-3.8-2.9-6.9-6.7-7.1c-22.7-1.2-35-10.5-40.2-15.9
			c-2.7-2.8-7.2-2.9-10-0.2C47,2.1,47,2.1,46.9,2.2C41.7,7.6,29.4,16.9,6.7,18.1C2.9,18.3,0,21.4,0,25.2v53.5
			c0,15.4,8.3,29.7,21.6,37.5l21.7,12.5c5.4,3.1,12,3.1,17.4,0l21.7-12.5c13.4-7.7,21.6-22,21.6-37.5v-26c0-1.1-0.9-1.9-1.9-1.9
			c-1.1,0-1.9,0.9-1.9,1.9v26c0,14.1-7.5,27.1-19.7,34.1l-21.7,12.5c-4.2,2.4-9.4,2.4-13.6,0l-21.7-12.5
			C11.3,105.7,3.8,92.7,3.8,78.7V25.2c0-1.7,1.3-3.2,3.1-3.3C30.9,20.7,44,10.7,49.7,4.8c1.2-1.3,3.3-1.3,4.6-0.1c0,0,0,0,0.1,0.1
			C60,10.7,73,20.7,97.1,21.9c1.7,0.1,3.1,1.5,3.1,3.3v18.5C100.2,44.8,101.1,45.6,102.1,45.6L102.1,45.6z"/>
		<path id="Path_275" d="M12.2,50.7c-1.1,0-1.9,0.9-1.9,1.9v26c0,11.8,6.3,22.6,16.5,28.5l21.7,12.5c2.2,1.3,4.9,1.3,7.1,0
			l21.7-12.5c10.2-5.9,16.4-16.8,16.5-28.5V32.2c0-2.3-1.7-4.2-3.9-4.5c-17.2-2.2-28.5-8.7-35-13.8c-1.6-1.3-3.9-1.3-5.6,0
			c-6.5,5.1-17.8,11.6-35,13.8c-2.2,0.3-3.9,2.2-3.9,4.5v11.5c0,1.1,0.9,1.9,1.9,1.9c1.1,0,1.9-0.9,1.9-1.9V32.2
			c0-0.3,0.2-0.6,0.6-0.7c18.1-2.3,30-9.2,36.9-14.6c0.2-0.2,0.6-0.2,0.8,0c6.8,5.4,18.8,12.3,36.9,14.6c0.3,0,0.6,0.3,0.6,0.7v46.4
			c0,10.4-5.6,20-14.5,25.2l-21.7,12.5c-1,0.6-2.2,0.6-3.2,0l-21.7-12.5c-9-5.2-14.5-14.8-14.5-25.2v-26
			C14.1,51.6,13.3,50.7,12.2,50.7z"/>
		<path id="Path_276" d="M28.7,61c1.5,0,3,0.6,4.1,1.7l10,10c0.7,0.7,2,0.7,2.7,0l11-11c0.7-0.7,0.7-2,0-2.7c-0.7-0.7-2-0.7-2.7,0
			l0,0l-9.6,9.6L35.6,60c-3.8-3.8-9.9-3.8-13.7,0c-3.8,3.8-3.8,9.9,0,13.7l0,0l15.5,15.5c3.8,3.8,9.9,3.8,13.7,0c0,0,0,0,0,0l31-31
			c3.8-3.8,3.8-9.9,0-13.7s-9.9-3.8-13.7,0l0,0l-8.2,8.2c-0.7,0.7-0.7,2,0,2.7c0.7,0.7,2,0.7,2.7,0l8.2-8.2c2.3-2.3,6-2.3,8.2,0
			c2.3,2.3,2.3,6,0,8.2l-31,31c-2.3,2.3-6,2.3-8.2,0c0,0,0,0,0,0L24.6,71c-2.3-2.3-2.3-6,0-8.2C25.7,61.6,27.2,61,28.7,61L28.7,61z"
			/>
	</g>
</g>
</svg>
