<?xml version="1.0" encoding="utf-8"?>
<!-- Generator: Adobe Illustrator 25.2.3, SVG Export Plug-In . SVG Version: 6.00 Build 0)  -->
<svg version="1.1" id="close-button-id" xmlns="http://www.w3.org/2000/svg" xmlns:xlink="http://www.w3.org/1999/xlink" x="0px" y="0px"
	 viewBox="0 0 84 91.8" style="enable-background:new 0 0 84 91.8;" xml:space="preserve">
<style type="text/css">
	#close-button-id .st0{enable-background:new    ;}
	#close-button-id .st1{fill:#636C89;}
	#close-button-id .st2{fill:none;stroke:#636C89;stroke-width:2;}
</style>
<g class="st0">
	<path class="st1" d="M16.3,83.4c1.1,0,2-0.2,2.7-0.5c0.8-0.4,1.6-0.9,2.4-1.7l2,2c-1.9,2.1-4.3,3.2-7,3.2c-2.7,0-5-0.9-6.8-2.7
		c-1.8-1.8-2.7-4-2.7-6.7s0.9-5,2.8-6.8c1.8-1.8,4.2-2.7,7-2.7c2.8,0,5.2,1,7.1,3.1l-1.9,2.1C20.9,72,20,71.4,19.3,71
		c-0.8-0.3-1.7-0.5-2.7-0.5c-1.8,0-3.4,0.6-4.6,1.8C10.7,73.5,10,75,10,76.9c0,1.8,0.6,3.4,1.9,4.6C13.1,82.7,14.6,83.4,16.3,83.4z"
		/>
	<path class="st1" d="M29.7,86.1h-2.9V66.9h2.9V86.1z"/>
	<path class="st1" d="M45.4,84.3c-1.4,1.4-3.1,2.1-5.2,2.1s-3.8-0.7-5.2-2.1S33,81.2,33,79.2s0.7-3.7,2.1-5.1s3.1-2.1,5.2-2.1
		s3.8,0.7,5.2,2.1s2.1,3.1,2.1,5.1S46.8,82.9,45.4,84.3z M37.1,82.5c0.8,0.8,1.9,1.3,3.1,1.3c1.3,0,2.3-0.4,3.1-1.3
		c0.8-0.8,1.2-1.9,1.2-3.3s-0.4-2.4-1.2-3.3s-1.9-1.3-3.1-1.3c-1.3,0-2.3,0.4-3.1,1.3s-1.2,1.9-1.2,3.3S36.3,81.7,37.1,82.5z"/>
	<path class="st1" d="M60.7,82c0,1.3-0.5,2.4-1.4,3.2c-1,0.8-2.2,1.2-3.7,1.2c-1,0-2-0.2-3.1-0.5c-1.1-0.4-2-0.9-2.9-1.5L51,82
		c1.6,1.2,3.2,1.8,4.7,1.8c0.7,0,1.2-0.2,1.6-0.5c0.4-0.3,0.6-0.7,0.6-1.2c0-0.7-0.9-1.3-2.8-1.9c-0.1-0.1-0.2-0.1-0.3-0.1
		c-2.9-0.8-4.3-2.1-4.3-3.9c0-1.3,0.5-2.3,1.5-3.1c1-0.8,2.3-1.2,3.9-1.2s3.1,0.5,4.5,1.4l-1.1,2.2c-1.1-0.7-2.3-1.1-3.7-1.1
		c-0.7,0-1.3,0.1-1.7,0.4c-0.4,0.3-0.7,0.6-0.7,1.1c0,0.5,0.2,0.8,0.7,1c0.3,0.2,0.8,0.3,1.3,0.4c0.6,0.1,1.1,0.3,1.5,0.4
		c0.4,0.1,0.9,0.3,1.3,0.5c0.4,0.2,0.8,0.4,1.3,0.7C60.2,79.7,60.7,80.7,60.7,82z"/>
	<path class="st1" d="M76.8,80.5H66c0.1,1,0.5,1.8,1.4,2.4s1.8,0.9,2.9,0.9c1.7,0,3.1-0.5,4-1.6l1.7,1.8c-1.5,1.5-3.4,2.3-5.8,2.3
		c-1.9,0-3.6-0.6-5-1.9c-1.4-1.3-2-3-2-5.2c0-2.2,0.7-3.9,2.1-5.2c1.4-1.3,3-1.9,4.9-1.9s3.5,0.6,4.8,1.7c1.3,1.1,2,2.7,2,4.7V80.5z
		 M66,78.2h7.9c0-1.2-0.4-2.1-1.1-2.7c-0.7-0.6-1.6-0.9-2.7-0.9c-1.1,0-2,0.3-2.9,1C66.4,76.2,66,77.1,66,78.2z"/>
</g>
<line id="Line_3" class="st2" x1="0" y1="61.6" x2="84" y2="61.6"/>
<path id="Rectangle_308" class="st1" d="M28,23.6L17.5,13c-2-2-2-5.1,0-7.1l1.1-1.1c2-2,5.1-2,7.1,0l10.5,10.5c2,2,2,5.1,0,7.1
	l-1.1,1.1C33.1,25.5,30,25.5,28,23.6z"/>
<path id="Rectangle_309" class="st1" d="M43.3,16.3L53.8,5.8c2-2,5.1-2,7.1,0L62,6.9c2,2,2,5.1,0,7.1L51.4,24.5c-2,2-5.1,2-7.1,0
	l-1.1-1.1C41.3,21.4,41.3,18.2,43.3,16.3z"/>
<path id="Rectangle_310" class="st1" d="M36.2,40.6L25.7,51.1c-2,2-5.1,2-7.1,0L17.5,50c-2-2-2-5.1,0-7.1L28,32.4c2-2,5.1-2,7.1,0
	l1.1,1.1C38.1,35.5,38.1,38.6,36.2,40.6z"/>
<path id="Rectangle_311" class="st1" d="M51.4,31.5L62,42.1c2,2,2,5.1,0,7.1l-1.1,1.1c-2,2-5.1,2-7.1,0L43.3,39.7c-2-2-2-5.1,0-7.1
	l1.1-1.1C46.3,29.6,49.5,29.6,51.4,31.5z"/>
</svg>
