<?xml version="1.0" encoding="utf-8"?>
<!-- Generator: Adobe Illustrator 25.2.3, SVG Export Plug-In . SVG Version: 6.00 Build 0)  -->
<svg version="1.1" id="Layer_1" xmlns="http://www.w3.org/2000/svg" xmlns:xlink="http://www.w3.org/1999/xlink" x="0px" y="0px"
	 viewBox="0 0 124 124" style="enable-background:new 0 0 124 124;" xml:space="preserve">
<g id="Group_908" transform="translate(0 0)">
	<g id="Group_851" transform="translate(0.001 0)">
		<g id="Group_850" transform="translate(0 0)">
			<path id="Path_245" d="M123.6,92.3l-2.3-11.7c-0.9-4.7-3.2-9-6.6-12.3l-4-4V50.5c3.4-1.3,5.1-5.1,3.9-8.6c3.6-1,5.7-4.8,4.7-8.4
				c0-0.2-0.1-0.3-0.2-0.5c3.6-1.2,5.4-5.1,4.2-8.7c-0.7-2-2.2-3.5-4.2-4.2c1.3-3.5-0.5-7.5-4.1-8.8c-0.8-0.3-1.5-0.4-2.3-0.4H99.1
				c2.4-2.9,2-7.3-0.9-9.7c-1.6-1.3-3.7-1.9-5.8-1.5L80.8,2.1c-4.7,0.9-9,3.2-12.3,6.6l-4,4H50.6c-1.3-3.4-5.1-5.1-8.6-4
				C41,5.1,37.3,3,33.6,4c-0.2,0-0.3,0.1-0.5,0.2C31.9,0.6,28-1.2,24.5,0c-2,0.7-3.5,2.2-4.2,4.2c-3.5-1.3-7.5,0.5-8.8,4.1
				c-0.3,0.8-0.4,1.5-0.4,2.3v13.7c-2.9-2.4-7.3-2-9.7,0.9c-1.3,1.6-1.9,3.7-1.5,5.8l2.3,11.7c0.9,4.7,3.2,9,6.6,12.3l4,4v13.8
				c-3.4,1.3-5.1,5.1-4,8.6c-3.6,1-5.7,4.8-4.7,8.4c0,0.2,0.1,0.3,0.2,0.5c-3.6,1.2-5.4,5.1-4.2,8.7c0.7,2,2.2,3.5,4.2,4.2
				c-1.3,3.5,0.5,7.5,4.1,8.8c0.8,0.3,1.5,0.4,2.3,0.4h13.7c-2.4,2.9-2,7.3,0.9,9.7c1.2,1,2.8,1.6,4.4,1.6c0.5,0,0.9,0,1.4-0.1
				l11.7-2.3c4.7-0.9,9-3.2,12.3-6.6l4-4h13.8c1.3,3.4,5.1,5.1,8.6,4c1,3.6,4.8,5.7,8.4,4.7c0.2,0,0.3-0.1,0.5-0.2
				c1.2,3.6,5.1,5.4,8.7,4.2c2-0.7,3.5-2.2,4.2-4.2c3.5,1.3,7.5-0.5,8.8-4.1c0.3-0.8,0.4-1.5,0.4-2.3V99c2.9,2.4,7.3,2,9.7-0.9
				C123.5,96.5,124,94.3,123.6,92.3L123.6,92.3z M51.1,31.6v-14h14.3c0.6,0,1.3-0.3,1.7-0.7l4.7-4.8c2.7-2.7,6.1-4.5,9.9-5.3
				l11.7-2.3c1.1-0.2,2.2,0.5,2.5,1.6c0.2,1.1-0.5,2.2-1.6,2.5l-4.9,1.2c-1.6,0.4-2.7,2.1-2.3,3.7c0.3,1.4,1.6,2.3,3,2.3h22.6
				c1.1,0,2,0.9,2,2c0,1-0.7,1.8-1.7,2l-13.4,0c-1.3,0-2.4,1.1-2.4,2.4c0,1.3,1.1,2.4,2.4,2.4l17.3,0c1.1,0,2,0.9,2,2s-0.9,2-2,2
				l0,0H99.6c-1.3,0-2.4,1.1-2.4,2.4c0,1.3,1.1,2.4,2.4,2.4c0,0,0,0,0,0H113c1.1,0.1,1.9,1.1,1.7,2.2c-0.1,1-1,1.7-2,1.7H99.6
				c-1.3,0-2.4,1.1-2.4,2.4s1.1,2.4,2.4,2.4h8.8c1.1,0.1,1.9,1.1,1.7,2.2c-0.1,1-1,1.7-2,1.7H83.7c-5.1,0-10-2-13.6-5.6l-3.1-3.1
				c-0.5-0.5-1.1-0.7-1.7-0.7H51.1V31.6z M12.2,51.5c-2.7-2.7-4.5-6.1-5.3-9.9L4.6,30c-0.2-1.1,0.5-2.2,1.6-2.4c0,0,0,0,0,0
				c1.1-0.2,2.1,0.5,2.4,1.5L9.9,34c0.4,1.6,2.1,2.7,3.7,2.3c1.4-0.3,2.3-1.6,2.3-3V10.6c0-1.1,0.9-2,2-2c1,0,1.8,0.7,2,1.7l0,13.4
				c0,1.3,1.1,2.4,2.4,2.4c1.3,0,2.4-1.1,2.4-2.4V10.6c0-0.1,0-0.3,0-0.4V6.4c0-1.1,0.9-2,2-2s2,0.9,2,2v3.7c0,0.1,0,0.3,0,0.4
				l0,13.2c0,1.3,1.1,2.4,2.4,2.4c1.3,0,2.4-1.1,2.4-2.4V10.4c0.1-1.1,1.1-1.9,2.2-1.7c1,0.1,1.7,1,1.7,2c0,0,0,11.8,0,11.9v1.3
				c0,1.3,1.1,2.4,2.4,2.4s2.4-1.1,2.4-2.4V15c0.1-1.1,1.1-1.9,2.2-1.7c1,0.1,1.7,1,1.7,2v24.5c0,5.1-2,10-5.6,13.6l-3.1,3.1
				c-0.5,0.5-0.7,1.1-0.7,1.7v14.3H32v-6.4c0-1.3-1.1-2.4-2.4-2.4c-1.3,0-2.4,1.1-2.4,2.4v6.4h-9.5V58c0-0.6-0.3-1.3-0.7-1.7
				L12.2,51.5z M72.4,105.7H58.1c-0.6,0-1.3,0.3-1.7,0.7l-4.7,4.8c-2.7,2.7-6.1,4.5-9.9,5.3l-11.7,2.3c-1.1,0.2-2.2-0.5-2.4-1.6
				c0,0,0,0,0,0c-0.2-1.1,0.5-2.1,1.5-2.4l4.9-1.2c1.6-0.4,2.7-2.1,2.3-3.7c-0.3-1.4-1.6-2.3-3-2.3H10.7c-1.1,0-2-0.9-2-2
				c0-1,0.7-1.8,1.7-2l13.4,0c1.3,0,2.4-1.1,2.4-2.4c0-1.3-1.1-2.4-2.4-2.4l-17.3,0c-1.1,0-2-0.9-2-2s0.9-2,2-2h17.3
				c1.3,0,2.4-1.1,2.4-2.4c0-1.3-1.1-2.4-2.4-2.4H10.5c-1.1-0.1-1.9-1.1-1.7-2.2c0.1-1,1-1.7,2-1.7h13.2c1.3,0,2.4-1.1,2.4-2.4
				c0-1.3-1.1-2.4-2.4-2.4h-8.8c-1.1-0.1-1.8-1.1-1.7-2.2c0.1-1,0.9-1.7,1.9-1.7h24.5c5.1,0,10,2,13.6,5.6l3.1,3.1
				c0.5,0.5,1.1,0.7,1.7,0.7h14.3L72.4,105.7z M72.5,81.7H59.1l-2.4-2.4c-4-4.1-9.4-6.5-15.1-7V59l2.4-2.4c4-4,6.5-9.4,7-15.1h13.4
				l2.4,2.4c4,4.1,9.4,6.5,15.1,7v13.4l-2.4,2.4C75.4,70.6,72.9,76,72.5,81.7L72.5,81.7z M118.5,94.8c-0.6,0.9-1.9,1.2-2.9,0.5
				c-0.4-0.3-0.7-0.7-0.8-1.2l-1.2-4.9c-0.4-1.6-2.1-2.7-3.7-2.3c-1.4,0.3-2.3,1.6-2.3,3v22.6c0,1.1-0.9,2-2,2c-1,0-1.8-0.7-2-1.7
				l0-13.4c0-1.3-1.1-2.4-2.4-2.4c-1.3,0-2.4,1.1-2.4,2.4l0,17.3c0,1.1-0.9,2-2,2s-2-0.9-2-2V99.5c0-1.3-1.1-2.4-2.4-2.4
				c-1.3,0-2.4,1.1-2.4,2.4v13.4c-0.1,1.1-1.1,1.9-2.2,1.7c-1-0.1-1.7-1-1.7-2V99.5c0-1.3-1.1-2.4-2.4-2.4c-1.3,0-2.4,1.1-2.4,2.4
				v8.8c-0.1,1.1-1.1,1.9-2.2,1.7c-1-0.1-1.7-1-1.7-2V83.6c0-5.1,2-10,5.6-13.6L86,67c0.5-0.5,0.7-1.1,0.7-1.7V51H96v7.3
				c0,1.3,1.1,2.4,2.4,2.4c1.3,0,2.4-1.1,2.4-2.4l0,0V51h5v14.3c0,0.6,0.3,1.3,0.7,1.7l4.8,4.7c2.7,2.7,4.5,6.1,5.3,9.9l2.3,11.7
				C119,93.8,118.9,94.4,118.5,94.8z"/>
		</g>
	</g>
	<g id="Group_853" transform="translate(96.254 65.378)">
		<g id="Group_852">
			<path id="Path_246" d="M3.9,0.3c-0.9-0.9-2.5-0.9-3.4,0c-0.9,0.9-0.9,2.5,0,3.4c0.9,0.9,2.5,0.9,3.4,0C4.3,3.3,4.6,2.7,4.6,2
				C4.6,1.4,4.3,0.8,3.9,0.3z"/>
		</g>
	</g>
	<g id="Group_855" transform="translate(27.4 54.693)">
		<g id="Group_854">
			<path id="Path_247" d="M3.9,0.3c-0.9-0.9-2.5-0.9-3.4,0c-0.9,0.9-0.9,2.5,0,3.4c0.9,0.9,2.5,0.9,3.4,0C4.3,3.3,4.6,2.7,4.6,2
				C4.6,1.4,4.3,0.8,3.9,0.3z"/>
		</g>
	</g>
</g>
</svg>
