<svg id="Layer_1" data-name="Layer 1" xmlns="http://www.w3.org/2000/svg" viewBox="0 0 432.92 161.66"><defs><style>.cls-1{fill:#6acad2;}.cls-2{fill:#f26c5f;}.cls-3{fill:#f5b229;}.cls-4{fill:#42af79;}.cls-5{fill:#ef783c;}</style></defs><path class="cls-1" d="M0,1.4H23.9q14.84,0,23,5.78T55,23.37a17.57,17.57,0,0,1-4,11.46A25.5,25.5,0,0,1,40.13,42.4a42.34,42.34,0,0,1-15.27,2.65H20.81V67.69H0ZM32.86,29.53a7.26,7.26,0,0,0,2.79-6.16,7,7,0,0,0-2.74-6.07c-1.84-1.35-4.48-2-7.95-2H20.81V31.46a41.5,41.5,0,0,0,4.15.19C28.36,31.65,31,31,32.86,29.53Z"/><path class="cls-2" d="M76.26,64.8A31.7,31.7,0,0,1,63.74,52.51a35.36,35.36,0,0,1-4.48-17.87,35.88,35.88,0,0,1,4.48-18A31.28,31.28,0,0,1,76.26,4.34,37.91,37.91,0,0,1,94.72,0a37.89,37.89,0,0,1,18.45,4.39,31.42,31.42,0,0,1,12.52,12.23,35.81,35.81,0,0,1,4.49,18.07,35.37,35.37,0,0,1-4.49,17.87A31.57,31.57,0,0,1,113.12,64.8a37.74,37.74,0,0,1-18.4,4.43A37.7,37.7,0,0,1,76.26,64.8ZM104.69,47q3.9-4.71,3.9-12.43a22.09,22.09,0,0,0-1.78-9.1,15,15,0,0,0-5-6.27,12.22,12.22,0,0,0-7.23-2.26,12.07,12.07,0,0,0-7.13,2.26,14.56,14.56,0,0,0-4.91,6.27,22.59,22.59,0,0,0-1.74,9.1q0,7.71,3.86,12.43a12.94,12.94,0,0,0,20,0Z"/><path class="cls-3" d="M137,64.22l4.81-14.93a53.4,53.4,0,0,0,17.73,3.56,14.43,14.43,0,0,0,6.22-1,3.26,3.26,0,0,0,2-3,3.18,3.18,0,0,0-1.06-2.36,14.32,14.32,0,0,0-4.24-2.26q-3.18-1.26-9.54-3.08a24.2,24.2,0,0,1-12.14-7.57,18.44,18.44,0,0,1-4.33-12.09q0-10.61,7-16T162.26,0a56.7,56.7,0,0,1,12.14,1.3A40.14,40.14,0,0,1,185,5.06l-5.2,14.55A80.52,80.52,0,0,0,170.4,17a38.27,38.27,0,0,0-7.75-.82q-6.36,0-6.36,3.47a3.47,3.47,0,0,0,2.07,2.94,44.12,44.12,0,0,0,8.53,3q10.11,2.7,15.32,8.24a18.68,18.68,0,0,1,5.2,13.25q0,10.7-6.94,16.43T160,69.23Q146.36,69.23,137,64.22Z"/><path class="cls-4" d="M196.47,1.4h22.25V67.69H196.47Z"/><path class="cls-5" d="M241.56,16H227.78V1.4h50V16H264V67.69H241.56Z"/><path class="cls-2" d="M286.85,1.4h22.26V67.69H286.85Z"/><path class="cls-4" d="M315.56,1.4h21.78l10.21,41.33L357.77,1.4h22.74L359.79,67.69H335.22Z"/><path class="cls-5" d="M386.38,1.4h46.54V16H409.8V28.09h21.1V40.23H409.8V53h23.12V67.69H386.38Z"/><path class="cls-1" d="M84.74,93.83H114l19.17,66.29H110.57l-2.51-12.72H90.91l-2.79,12.72H66.44Zm21,41.72-6.26-29-6.56,29Z"/><path class="cls-5" d="M152.87,157a33.17,33.17,0,0,1-12.24-12.77,36.46,36.46,0,0,1-4.43-17.83,33.83,33.83,0,0,1,4.48-17.15,32.64,32.64,0,0,1,12.48-12.33,36.29,36.29,0,0,1,18.21-4.53,46.93,46.93,0,0,1,10.84,1.25,38.59,38.59,0,0,1,9.49,3.57l-6.36,14.93a32.47,32.47,0,0,0-12.24-2.7c-4.95,0-8.77,1.6-11.46,4.77s-4,7.34-4,12.48a21.4,21.4,0,0,0,1.83,9,15.2,15.2,0,0,0,5.15,6.31,12.89,12.89,0,0,0,7.57,2.32,16,16,0,0,0,3.85-.39V128.42l16.67-1.93v30.16a52.75,52.75,0,0,1-22.26,5A33.51,33.51,0,0,1,152.87,157Z"/><path class="cls-3" d="M203.07,93.83h22.26v66.29H203.07Z"/><path class="cls-4" d="M237.85,93.83h19.37l26.4,35.74V93.83h17.25v66.29H281.6L255,125.62v34.5H237.85Z"/><path class="cls-3" d="M326.69,157a33.31,33.31,0,0,1-12.24-12.77A36.57,36.57,0,0,1,310,126.39a33.93,33.93,0,0,1,4.48-17.15A32.7,32.7,0,0,1,327,96.91a36.29,36.29,0,0,1,18.21-4.53A46.8,46.8,0,0,1,356,93.63a38.44,38.44,0,0,1,9.49,3.57l-6.36,14.93a32.42,32.42,0,0,0-12.23-2.7c-4.95,0-8.77,1.6-11.47,4.77s-4,7.34-4,12.48a21.4,21.4,0,0,0,1.83,9A15.14,15.14,0,0,0,338.4,142a12.84,12.84,0,0,0,7.56,2.32,16.11,16.11,0,0,0,3.86-.39V128.42l16.67-1.93v30.16a52.75,52.75,0,0,1-22.26,5A33.52,33.52,0,0,1,326.69,157Z"/></svg>