<svg id="Layer_1" data-name="Layer 1" xmlns="http://www.w3.org/2000/svg" viewBox="0 0 792 63.99"><defs><style>.cls-1{fill:#69cad2;}.cls-2{fill:#0e3151;}.cls-3{fill:#f26951;}.cls-4{fill:#f26b5f;}.cls-5{fill:#f6b22c;}.cls-6{fill:#f0783d;}.cls-7{fill:#41af79;}</style></defs><rect class="cls-1" y="2.04" width="41.03" height="61.81"/><path class="cls-2" d="M61.68,22.69A20.64,20.64,0,0,1,41,43.34V2A20.64,20.64,0,0,1,61.68,22.69Z"/><path class="cls-3" d="M41,2v41.3A20.65,20.65,0,0,1,41,2Z"/><path class="cls-4" d="M109.88,43.34A20.66,20.66,0,0,1,89.23,64V22.69A20.65,20.65,0,0,1,109.88,43.34Z"/><path class="cls-5" d="M89.23,22.69V64a20.65,20.65,0,0,1,0-41.3Z"/><path class="cls-6" d="M158.07,49.3a13.3,13.3,0,0,1-13.31,13.31V36A13.31,13.31,0,0,1,158.07,49.3Z"/><path class="cls-1" d="M130.1,5.06V31.68a13.31,13.31,0,1,1,0-26.62Z"/><path class="cls-7" d="M158.07,16.6a13.3,13.3,0,0,1-13.31,13.31V3.29A13.3,13.3,0,0,1,158.07,16.6Z"/><path class="cls-7" d="M144.76,3.29V29.91a13.31,13.31,0,0,1,0-26.62Z"/><path class="cls-5" d="M143.41,49.3A13.31,13.31,0,0,1,130.1,62.61V36A13.31,13.31,0,0,1,143.41,49.3Z"/><path class="cls-5" d="M130.1,36V62.61a13.32,13.32,0,0,1,0-26.63Z"/><rect class="cls-2" x="164.99" y="15.39" width="26.21" height="48.46"/><path class="cls-1" d="M191.13,15.39a13,13,0,0,1-13,13.05V2.35A13,13,0,0,1,191.13,15.39Z"/><path class="cls-6" d="M178.09,2.35V28.44a13,13,0,0,1,0-26.09Z"/><rect class="cls-7" x="283.18" y="15.39" width="26.21" height="48.46"/><path class="cls-1" d="M309.32,15.39a13,13,0,0,1-13,13.05V2.35A13,13,0,0,1,309.32,15.39Z"/><path class="cls-6" d="M296.28,2.35V28.44a13,13,0,0,1,0-26.09Z"/><rect class="cls-5" x="224.08" y="2.04" width="26.21" height="61.81"/><path class="cls-4" d="M224.19,13.69a13,13,0,0,1-13,13V.65A13,13,0,0,1,224.19,13.69Z"/><path class="cls-4" d="M211.15.65V26.73a13,13,0,1,1,0-26.08Z"/><path class="cls-4" d="M273.25,13.69a13,13,0,0,1-13,13V.65A13,13,0,0,1,273.25,13.69Z"/><path class="cls-4" d="M260.21.65V26.73a13,13,0,1,1,0-26.08Z"/><polygon class="cls-2" points="316.3 22.69 336.68 22.69 336.68 62.61 316.3 22.69"/><polygon class="cls-1" points="336.68 62.61 336.68 22.69 357.06 22.69 336.68 62.61"/><polygon class="cls-6" points="336.68 36.2 343.57 22.69 336.68 22.69 329.78 22.69 336.68 36.2"/><rect class="cls-2" x="370.15" y="16.66" width="19.12" height="31.48" transform="translate(412.11 -347.31) rotate(90)"/><path class="cls-7" d="M395.45,42a9.54,9.54,0,0,1-9.54-9.54H405A9.54,9.54,0,0,1,395.45,42Z"/><path class="cls-7" d="M405,32.41H385.91a9.54,9.54,0,0,1,19.08,0Z"/><rect class="cls-1" x="379.35" y="-13.03" width="20.49" height="51.24" transform="translate(402.19 -377) rotate(90)"/><path class="cls-4" d="M415.21,22.84A10.23,10.23,0,0,1,405,12.61h20.45A10.23,10.23,0,0,1,415.21,22.84Z"/><path class="cls-4" d="M425.44,12.61H405a10.23,10.23,0,0,1,20.45,0Z"/><rect class="cls-1" x="379.35" y="26.58" width="20.49" height="51.24" transform="translate(441.79 -337.39) rotate(90)"/><path class="cls-4" d="M415.21,62.44A10.22,10.22,0,0,1,405,52.22h20.45A10.22,10.22,0,0,1,415.21,62.44Z"/><path class="cls-4" d="M425.44,52.22H405a10.23,10.23,0,0,1,20.45,0Z"/><path class="cls-1" d="M574.48,1.31V60.54a29.62,29.62,0,0,1,0-59.23Z"/><path class="cls-2" d="M574.48,62.33a29.61,29.61,0,0,1-29.62-29.62H604.1A29.62,29.62,0,0,1,574.48,62.33Z"/><rect class="cls-5" x="618.34" y="14.87" width="26.21" height="48.46"/><path class="cls-1" d="M644.49,14.87a13,13,0,0,1-13,13V1.82A13,13,0,0,1,644.49,14.87Z"/><path class="cls-6" d="M631.44,1.82V27.91a13,13,0,0,1,0-26.09Z"/><polygon class="cls-2" points="531.3 62.77 500.02 62.77 500.02 1.52 531.3 62.77"/><polygon class="cls-1" points="500.02 1.52 500.02 62.77 468.75 62.77 500.02 1.52"/><polygon class="cls-6" points="500.02 42.05 489.44 62.77 500.02 62.77 510.61 62.77 500.02 42.05"/><rect class="cls-1" x="658.13" y="1.52" width="60.4" height="60.4"/><polygon class="cls-2" points="688.6 61.92 658.13 1.52 658.13 61.92 688.6 61.92"/><polygon class="cls-7" points="688.05 1.52 718.53 61.92 718.53 1.52 688.05 1.52"/><path class="cls-5" d="M762.38,62.33a29.62,29.62,0,0,1-29.62-29.62H792A29.62,29.62,0,0,1,762.38,62.33Z"/><path class="cls-4" d="M761.71,3.09V62.33a29.62,29.62,0,0,1,0-59.24Z"/></svg>