<?xml version="1.0" encoding="utf-8"?>
<!-- Generator: Adobe Illustrator 25.2.3, SVG Export Plug-In . SVG Version: 6.00 Build 0)  -->
<svg version="1.1" id="Layer_1" xmlns="http://www.w3.org/2000/svg" xmlns:xlink="http://www.w3.org/1999/xlink" x="0px" y="0px"
	 viewBox="0 0 159 157" style="enable-background:new 0 0 159 157;" xml:space="preserve">
<style type="text/css">
	.st0{fill:#F9AC56;}
</style>
<g id="Group_69" transform="translate(-1710.511 -2170)">
	<g id="Group_68" transform="translate(1710.511 2170)">
		<path id="Rectangle_314" class="st0" d="M113.8,89.9H68.1l0,0V45.2c0-24.7,20-44.7,44.7-44.7h1c24.7,0,44.7,20,44.7,44.7l0,0
			C158.5,69.9,138.5,89.9,113.8,89.9z"/>
		<path id="Rectangle_315" class="st0" d="M30.3,96.9h29.8l0,0v29.8c0,16.5-13.3,29.8-29.8,29.8l0,0c-16.5,0-29.8-13.3-29.8-29.8
			l0,0C0.5,110.2,13.8,96.9,30.3,96.9z"/>
		<path id="Rectangle_333" class="st0" d="M68.1,96.9h29.8c16.5,0,29.8,13.3,29.8,29.8l0,0c0,16.5-13.3,29.8-29.8,29.8l0,0
			c-16.5,0-29.8-13.3-29.8-29.8V96.9L68.1,96.9z"/>
		<path id="Rectangle_332" class="st0" d="M30.3,30.3L30.3,30.3c16.5,0,29.8,13.3,29.8,29.8v29.8l0,0H30.3
			c-16.5,0-29.8-13.3-29.8-29.8l0,0C0.5,43.6,13.8,30.3,30.3,30.3z"/>
	</g>
</g>
</svg>
