<?xml version="1.0" encoding="utf-8"?>
<!-- Generator: Adobe Illustrator 25.2.3, SVG Export Plug-In . SVG Version: 6.00 Build 0)  -->
<svg version="1.1" id="Layer_1" xmlns="http://www.w3.org/2000/svg" xmlns:xlink="http://www.w3.org/1999/xlink" x="0px" y="0px"
	 viewBox="0 0 134 138.9" style="enable-background:new 0 0 134 138.9;" xml:space="preserve">
<path id="Path_203" d="M54.9,32.9h-5.5c-5.5,0-10.7,2.2-14.5,6L8.2,65.5c-0.4,0.4-0.7,1-0.7,1.6c0,0.6,0.2,1.2,0.7,1.6l11.4,11.4
	c0.9,0.9,2.3,0.9,3.2,0c0,0,0,0,0,0L44.1,59v23.8L26,135c-0.2,0.7-0.1,1.5,0.3,2.1c0.4,0.6,1.1,1,1.9,1h20.6c1,0,1.8-0.6,2.2-1.5
	l16.3-46.7l18.3,46.8c0.3,0.9,1.2,1.5,2.1,1.5h20.6c0.8,0,1.5-0.4,1.9-1c0.4-0.6,0.5-1.4,0.2-2.1L89.9,82.7V59l21.2,21.2
	c0.9,0.9,2.3,0.9,3.2,0c0,0,0,0,0,0l11.4-11.4c0.4-0.4,0.7-1,0.7-1.6c0-0.6-0.2-1.2-0.7-1.6L99.1,38.9c-3.9-3.9-9.1-6-14.5-6h-5.5
	c4-3.5,6.2-8.5,6.2-13.7C85.3,9.1,77.1,0.9,67,0.9c-10.1,0-18.3,8.2-18.3,18.3C48.7,24.4,51,29.4,54.9,32.9L54.9,32.9z M84.6,37.4
	c4.2,0,8.3,1.7,11.3,4.7l25,25l-8.2,8.2L89.2,51.8c-0.7-0.7-1.6-0.8-2.5-0.5c-0.9,0.4-1.4,1.2-1.4,2.1v29.7c0,0.3,0.1,0.6,0.2,0.8
	l19.4,49.5H89.1l-20-51.1c-0.3-0.9-1.2-1.5-2.1-1.5h0c-1,0-1.8,0.6-2.1,1.5l-17.8,51H31.4l17.2-49.5c0.1-0.2,0.1-0.5,0.1-0.8V53.4
	c0-0.9-0.6-1.8-1.4-2.1c-0.9-0.4-1.8-0.2-2.5,0.5L21.3,75.4l-8.2-8.2l25-25c3-3,7.1-4.7,11.3-4.7L84.6,37.4z M67,5.4
	c7.6,0,13.7,6.1,13.7,13.7c0,7.6-6.1,13.7-13.7,13.7c-7.6,0-13.7-6.1-13.7-13.7C53.3,11.6,59.4,5.4,67,5.4L67,5.4z"/>
<path id="Path_205" d="M114.4,23.1c-1.1-1.1-2.3-2.3-3.5-3.3l-3,3.4c1.1,1,2.2,2,3.2,3.1L114.4,23.1z"/>
<path id="Path_206" d="M116.9,33.1l3.7-2.7c-0.9-1.3-1.9-2.5-3-3.8l-3.5,3C115.1,30.7,116,31.9,116.9,33.1z"/>
<path id="Path_207" d="M99.3,11.5c-1.4-0.8-2.8-1.5-4.3-2.2l-1.9,4.1c1.3,0.6,2.7,1.3,4,2L99.3,11.5z"/>
<path id="Path_208" d="M121.6,40.6l4-2.1c-0.7-1.4-1.5-2.8-2.4-4.1l-3.9,2.4C120.2,38,120.9,39.3,121.6,40.6L121.6,40.6z"/>
<path id="Path_209" d="M128.6,66.1l4.6-0.2c-0.1-1.6-0.2-3.2-0.4-4.8l-4.5,0.6C128.4,63.2,128.6,64.6,128.6,66.1z"/>
<path id="Path_210" d="M125.2,48.7l4.3-1.5c-0.5-1.5-1.1-3-1.8-4.4l-4.2,1.8C124.1,46,124.7,47.4,125.2,48.7L125.2,48.7z"/>
<path id="Path_211" d="M126.7,98.3l-4.1-2c-0.6,1.3-1.3,2.6-2.1,3.9l4,2.3C125.3,101.1,126,99.7,126.7,98.3L126.7,98.3z"/>
<path id="Path_212" d="M130.2,89.4l-4.4-1.4c-0.4,1.4-0.9,2.8-1.5,4.2l4.2,1.7C129.2,92.5,129.7,91,130.2,89.4L130.2,89.4z"/>
<path id="Path_213" d="M121.9,106.6l-3.8-2.6c-0.8,1.2-1.7,2.4-2.6,3.6l3.6,2.8C120.1,109.2,121,107.9,121.9,106.6L121.9,106.6z"/>
<path id="Path_214" d="M109.5,114.2l3.2,3.3c1.1-1.1,2.3-2.2,3.3-3.4l-3.4-3.1C111.6,112.1,110.6,113.2,109.5,114.2z"/>
<path id="Path_215" d="M127.5,57.3l4.5-0.9c-0.3-1.6-0.7-3.1-1.1-4.6l-4.4,1.2C126.9,54.4,127.2,55.9,127.5,57.3z"/>
<path id="Path_216" d="M132.4,80.2l-4.5-0.7c-0.2,1.5-0.5,2.9-0.9,4.4l4.4,1.1C131.9,83.3,132.2,81.7,132.4,80.2L132.4,80.2z"/>
<path id="Path_217" d="M133.3,70.7l-4.6-0.1c0,1.5-0.1,3-0.2,4.4l4.6,0.4C133.2,73.8,133.3,72.2,133.3,70.7z"/>
<path id="Path_218" d="M107.3,16.8c-1.2-1-2.6-1.9-3.9-2.8l-2.5,3.8c1.2,0.8,2.5,1.7,3.6,2.6L107.3,16.8z"/>
<path id="Path_219" d="M5.5,74.9c-0.1-1.5-0.2-3-0.2-4.4l-4.6,0.1c0,1.6,0.1,3.2,0.2,4.8L5.5,74.9z"/>
<path id="Path_220" d="M5.8,61.6L1.2,61c-0.2,1.6-0.3,3.2-0.4,4.8l4.6,0.2C5.4,64.6,5.6,63.1,5.8,61.6L5.8,61.6z"/>
<path id="Path_221" d="M7.5,52.9l-4.4-1.2c-0.4,1.5-0.8,3.1-1.1,4.6l4.5,0.9C6.8,55.8,7.1,54.3,7.5,52.9z"/>
<path id="Path_222" d="M41,13.5l-1.9-4.1c-1.4,0.7-2.9,1.4-4.3,2.2l2.2,4C38.3,14.8,39.6,14.1,41,13.5z"/>
<path id="Path_223" d="M14.7,36.7l-3.9-2.4C10,35.6,9.2,37,8.4,38.4l4,2.1C13.1,39.2,13.9,38,14.7,36.7L14.7,36.7z"/>
<path id="Path_224" d="M10.5,44.5l-4.2-1.8c-0.6,1.5-1.2,3-1.8,4.4l4.3,1.5C9.3,47.3,9.9,45.9,10.5,44.5z"/>
<path id="Path_225" d="M26.2,23.2l-3-3.4c-1.2,1.1-2.4,2.2-3.5,3.3l3.3,3.2C24,25.2,25,24.2,26.2,23.2z"/>
<path id="Path_226" d="M24.4,114.1c-1.1-1-2.1-2.1-3.1-3.2l-3.4,3.1c1.1,1.2,2.2,2.3,3.3,3.4L24.4,114.1z"/>
<path id="Path_227" d="M19.9,29.5l-3.5-3c-1,1.2-2,2.5-3,3.8l3.7,2.7C18,31.8,19,30.7,19.9,29.5z"/>
<path id="Path_228" d="M9.6,92.2c-0.5-1.4-1-2.8-1.5-4.2l-4.4,1.4c0.5,1.5,1,3,1.6,4.5L9.6,92.2z"/>
<path id="Path_229" d="M33.2,17.8L30.7,14c-1.3,0.9-2.6,1.8-3.9,2.8l2.8,3.6C30.8,19.5,32,18.6,33.2,17.8z"/>
<path id="Path_230" d="M1.5,80.1c0.2,1.6,0.6,3.1,0.9,4.7l4.4-1.1c-0.3-1.4-0.6-2.9-0.9-4.4L1.5,80.1z"/>
<path id="Path_231" d="M13.5,100.2c-0.7-1.3-1.4-2.6-2.1-3.9l-4.1,2c0.7,1.4,1.4,2.9,2.2,4.2L13.5,100.2z"/>
<path id="Path_232" d="M18.4,107.6c-0.9-1.2-1.8-2.4-2.6-3.6l-3.8,2.6c0.9,1.3,1.8,2.6,2.8,3.9L18.4,107.6z"/>
<path id="Path_233" d="M69.4,135.7c1.6-0.1,3.2-0.2,4.8-0.3l-0.5-4.5c-1.5,0.2-3,0.3-4.4,0.3L69.4,135.7z"/>
<path id="Path_234" d="M64.6,135.7l0.2-4.6c-1.5-0.1-3-0.2-4.4-0.3l-0.5,4.5C61.4,135.5,63,135.6,64.6,135.7L64.6,135.7z"/>
</svg>
