<?xml version="1.0" encoding="utf-8"?>
<!-- Generator: Adobe Illustrator 25.2.3, SVG Export Plug-In . SVG Version: 6.00 Build 0)  -->
<svg version="1.1" id="Layer_1" xmlns="http://www.w3.org/2000/svg" xmlns:xlink="http://www.w3.org/1999/xlink" x="0px" y="0px"
	 viewBox="0 0 135.9 130.4" style="enable-background:new 0 0 135.9 130.4;" xml:space="preserve">
<g id="Group_900" transform="translate(0 0)">
	<path id="Path_255" d="M135.7,126.9c-0.3-2.6-1.9-15.3-8.1-25.9c-2.7-4.5-6.2-8.5-10.3-11.8c-9.9-8.1-22.8-8.5-24.1-8.5
		c-1.5-0.1-3.2-0.1-5.3-0.1h-0.6V70c3.3-3.2,5.8-7.3,7.2-11.7h1.3c5.7,0,10.4-4.7,10.4-10.4v0c0,0,0,0,0,0s0,0,0,0
		c0-1.5-0.3-2.9-0.9-4.3c-0.1-23.4-7.9-29.7-10.9-31.2c-1.9-3-9.3-12.4-25.4-12.4c-0.3,0-1.9,0-2.2,0c-9.5,0-18.5,3.9-25,10.8
		c-6.4,6.9-10,16.1-9.9,25.6v5.1c-1.5,1.8-2.3,4.1-2.3,6.5v0.1c0,5.7,4.7,10.4,10.4,10.4h1.2c1.4,4.4,3.8,8.5,7.2,11.7v10.6
		c-1.3,0-2.5,0.1-3.8,0.1c-4.9,0.1-9.8,0.9-14.5,2.4c-1.4,0.4-2.2,1.9-1.8,3.3c0.4,1.4,1.9,2.2,3.3,1.8c0.1,0,0.1,0,0.2-0.1
		c4.2-1.3,8.5-2,12.9-2.1c1.3,0,2.6-0.1,3.9-0.1c1.1,7.3,6.1,13.4,13.1,15.8c2,0.7,4.1,1,6.2,1c7.4,0,14.2-4.3,17.5-11
		c0.9-1.8,1.5-3.8,1.8-5.8h0.8c2,0,3.6,0,5,0.1c0.1,0,0.1,0,0.2,0c0.1,0,12.1,0.1,20.8,7.3l0,0c3.6,2.8,6.7,6.3,9.1,10.3
		c4.4,7.6,6.3,16.7,7.1,21.2h-11.9v-5.3c0-1.5-1.2-2.7-2.7-2.7s-2.7,1.2-2.7,2.7c0,0,0,0,0,0v5.3H24.4v-5.3c0-1.5-1.2-2.7-2.7-2.7
		s-2.7,1.2-2.7,2.7v5.3H5.5c0.7-4.5,2.6-13.6,7.1-21.2c0.6-1,1.2-2,1.9-3c0.9-1.2,0.6-2.8-0.6-3.7s-2.8-0.6-3.7,0.6
		c-0.8,1.1-1.5,2.2-2.2,3.4c-6.2,10.7-7.8,23.4-8.1,25.9c0,0.2-0.1,0.5,0,0.8c0.1,1.4,1.2,2.5,2.7,2.5h130.6c1.4,0,2.6-1.1,2.7-2.5
		C135.7,127.4,135.7,127.2,135.7,126.9L135.7,126.9z M100.7,47.9c0,2.8-2.3,5-5.1,5h-0.2c0.1-1,0.4-10.3,0.3-10.3
		c1.3,0,2.6,0.5,3.5,1.5C100.2,45.2,100.7,46.5,100.7,47.9L100.7,47.9z M99.6,38.2c-1.2-0.5-2.6-0.8-3.9-0.8
		c0.1-2.8-1.8-5.3-4.5-5.9c-1-0.2-1.9-0.2-2.9-0.3c-1.5-0.1-3-0.6-4.4-1.3c-0.3-0.2-0.6-0.4-0.9-0.7c4.8-1.9,8.7-5.7,10.7-10.5
		C95.8,21,98.9,26.4,99.6,38.2L99.6,38.2z M37.1,36.2c-0.1-8.1,2.9-16,8.4-21.9C51,8.4,58.7,5.1,66.7,5.2c0.3,0,1.8,0,2.2,0
		c12.9,0,18.9,7.1,20.6,9.6c-1.4,5.1-5.6,9-10.8,10.2c-4.8,0-9.6,0.9-14.1,2.5c-4.6,1.6-8.9,4-12.7,7.1c-0.1,0.1-0.3,0.2-0.5,0.3
		c-2.6,1.8-5.8,2.7-9,2.5c-1.8-0.1-3.6,0-5.3,0.4L37.1,36.2z M36.3,51.5c-1-0.9-1.5-2.2-1.5-3.6v-0.1c0-1.4,0.5-2.6,1.5-3.6
		c0.9-0.9,2.2-1.4,3.5-1.5c-0.1,3.4,0,6.8,0.2,10.3h-0.1C38.6,53,37.3,52.4,36.3,51.5L36.3,51.5z M45.7,55.1
		c-0.1-0.3-0.1-0.6-0.2-0.9c-0.2-1.3-0.3-2.6-0.4-3.9c-0.1-2.5-0.1-5.1-0.1-7.7c3.7-0.3,7.2-1.7,10.1-3.9c3.4-2.7,7.1-4.8,11.2-6.2
		c3.5-1.2,7.1-2,10.8-2.2c1.7,3.1,4.9,5.2,9.4,6c0.5,0.1,1.1,0.2,1.7,0.2c0.4,0,0.4,0.1,2.2,0.2c0,0,0,7.9,0,10.3
		c0.1,2.7-0.1,5.4-0.6,8.1c-1.1,4.6-3.5,8.7-7,11.9C70.2,78.1,49.5,71.5,45.7,55.1L45.7,55.1z M53.6,83.3V74
		c8.7,5.2,19.6,5.2,28.3,0v9.2c0,7.8-6.3,14.2-14.2,14.2C59.9,97.5,53.6,91.1,53.6,83.3z"/>
	<path id="Path_256" d="M61.8,48.6c1.5,0,2.7-1.2,2.7-2.7c0-2.1,1.7-3.8,3.8-3.8c2,0,3.6,1.5,3.8,3.5c0.1,1.7-0.9,3.3-2.5,3.8
		c-2.4,0.8-3.9,3.1-3.9,5.6v1.7c0,1.5,1.2,2.7,2.7,2.7s2.7-1.2,2.7-2.7v-1.7c0-0.3,0.2-0.5,0.4-0.6c4.7-1.7,7.2-6.9,5.5-11.6
		c-1.2-3.4-4.3-5.8-7.9-6c-2.5-0.2-5,0.7-6.8,2.4c-1.8,1.7-2.9,4.1-2.9,6.7C59.1,47.4,60.3,48.6,61.8,48.6L61.8,48.6z"/>
	<path id="Path_257" d="M70.7,64.2c-0.6-1.4-2.1-2-3.5-1.4c-1.4,0.6-2,2.1-1.4,3.5c0.6,1.4,2.1,2,3.5,1.4c0.2-0.1,0.3-0.1,0.5-0.2
		C70.7,66.7,71.1,65.3,70.7,64.2z"/>
	<path id="Path_258" d="M17.7,92.2c0.6,1.4,2.1,2,3.5,1.4c1.4-0.6,2-2.1,1.4-3.5c-0.6-1.4-2.1-2-3.5-1.4c-0.2,0.1-0.4,0.2-0.5,0.3
		C17.6,89.7,17.2,91,17.7,92.2z"/>
</g>
</svg>
