<svg xmlns="http://www.w3.org/2000/svg" xmlns:xlink="http://www.w3.org/1999/xlink" viewBox="0 0 1004.27 320.6"><defs><style>.cls-1{fill:none;}.cls-2{fill:#e37c41;}.cls-3{fill:#65c9d3;}.cls-4{fill:#103052;}.cls-5{fill:#f47734;}.cls-6{clip-path:url(#clip-path);}.cls-7{fill:#f2674b;}</style><clipPath id="clip-path"><rect class="cls-1" x="719.88" y="138.14" width="64.95" height="64.95"/></clipPath></defs><g id="Layer_2" data-name="Layer 2"><path class="cls-2" d="M226.89,147.23H204.42V130.82H270v16.41H247.59V204h-20.7Z"/><path class="cls-2" d="M347.32,130.82V204h-20.7V175.46H298.39V204h-20.7V130.82h20.7v27.49h28.23V130.82Z"/><path class="cls-2" d="M504,130.82V204H487l-32.3-39v39H434.39V130.82h17l32.3,39v-39Z"/><path class="cls-2" d="M546.87,177.44l-7.74,8.26V204H518.64V130.82h20.49v30.42l28.33-30.42h22.79l-29.9,32.41L591.82,204h-24Z"/><path class="cls-2" d="M697.29,177.76V204h-20.7V177.44l-27.91-46.62h21.85l17.35,29.06,17.35-29.06h20.08Z"/><path class="cls-2" d="M790.74,171.38V130.82h20.7v39.93c0,12.55,5.23,17.57,13.9,17.57s13.8-5,13.8-17.57V130.82h20.39v40.56c0,21.85-12.76,34.08-34.4,34.08S790.74,193.23,790.74,171.38Z"/><path id="Path_195" data-name="Path 195" class="cls-3" d="M390.5,130.16l-37,74h74Z"/><path id="Path_196" data-name="Path 196" class="cls-4" d="M390.5,130.16v48.58l12.72,25.45h24.29Z"/><path id="Path_197" data-name="Path 197" class="cls-5" d="M377.77,204.19h25.45L390.5,178.74Z"/><g class="cls-6"><path id="Path_198" data-name="Path 198" class="cls-4" d="M752.35,138.14v65a32.48,32.48,0,0,0,0-65"/><path id="Path_199" data-name="Path 199" class="cls-7" d="M752.35,138.14a32.48,32.48,0,0,0-.26,65h.26Z"/></g></g></svg>