<?xml version="1.0" encoding="utf-8"?>
<!-- Generator: Adobe Illustrator 25.2.3, SVG Export Plug-In . SVG Version: 6.00 Build 0)  -->
<svg version="1.1" id="Layer_1" xmlns="http://www.w3.org/2000/svg" xmlns:xlink="http://www.w3.org/1999/xlink" x="0px" y="0px"
	 viewBox="0 0 181.9 101.6" style="enable-background:new 0 0 181.9 101.6;" xml:space="preserve">
<g id="Group_893" transform="translate(0 0)">
	<path id="Path_241" d="M33,75.2c-4.2,0-7.7,3.4-7.7,7.7s3.4,7.7,7.7,7.7s7.7-3.4,7.7-7.7l0,0C40.7,78.6,37.3,75.2,33,75.2z
		 M33,85.2c-1.3,0-2.4-1.1-2.4-2.4s1.1-2.4,2.4-2.4c1.3,0,2.4,1.1,2.4,2.4C35.4,84.2,34.3,85.2,33,85.2L33,85.2z"/>
	<path id="Path_242" d="M149.2,75.2c-4.2,0-7.7,3.4-7.7,7.7c0,4.2,3.4,7.7,7.7,7.7c4.2,0,7.7-3.4,7.7-7.7c0,0,0,0,0,0
		C156.9,78.6,153.5,75.2,149.2,75.2z M149.2,85.2c-1.3,0-2.4-1.1-2.4-2.4c0-1.3,1.1-2.4,2.4-2.4c1.3,0,2.4,1.1,2.4,2.4
		C151.6,84.2,150.5,85.2,149.2,85.2L149.2,85.2z"/>
	<path id="Path_243" d="M174.1,60.3v-24c0-3-0.8-6-2.3-8.6l-3.1-5.2c-0.7-1.3-2.4-1.7-3.6-0.9s-1.7,2.4-0.9,3.6l3.1,5.2
		c1,1.8,1.6,3.8,1.6,5.9v0.4h-5.3c-3.1,0-5.6,2.5-5.6,5.6v15.1c0,3.1,2.5,5.6,5.6,5.6h5.3c0.2,1.3,1.3,2.3,2.6,2.3h0.1
		c2.2,0,4,1.8,4,4v4.3h-10.7c-5.1-8.7-16.3-11.5-25-6.4c-2.6,1.6-4.8,3.8-6.4,6.4h-26.6l3.3-7.4c0.4-0.8,0.6-1.7,0.5-2.6V41.9h17.7
		c1.5,0,2.7-1.2,2.7-2.7c0-1.5-1.2-2.7-2.7-2.7h-12.4V16.3h29.1l0,20.3h-5.4c-1.5,0-2.7,1.2-2.7,2.7c0,1.5,1.2,2.7,2.7,2.7h5.4
		c2.9,0,5.3-2.4,5.3-5.3V15.4c0-2.4-2-4.4-4.4-4.4H84.4c-1.1,0-2.1,0.4-2.9,1.1l-29,25.2c-1.1,1-1.2,2.6-0.3,3.7
		c0.5,0.6,1.2,0.9,2,0.9h51.2v21.6c0,0.1,0,0.3-0.1,0.4l-4.3,9.6H70.8c-1.5,0-2.7,1.2-2.7,2.7c0,1.5,1.2,2.7,2.7,2.7h60.6
		c-0.3,1.3-0.5,2.7-0.5,4c0,0.4,0,0.9,0.1,1.3H51.3c0-0.4,0.1-0.9,0.1-1.3c0-1.4-0.2-2.7-0.5-4h8.7c1.5,0,2.7-1.2,2.7-2.7
		c0-1.5-1.2-2.7-2.7-2.7H48.7c-1.9-3.2-4.7-5.7-8-7.2V40.5L78.8,7.4c1.3-1.1,2.9-1.7,4.6-1.7h62.7c4.1,0,7.9,2.2,10,5.7l2.3,3.9
		c0.7,1.3,2.4,1.7,3.6,0.9c1.3-0.7,1.7-2.4,0.9-3.6l-2.3-3.9c-3-5.2-8.6-8.3-14.6-8.4H83.3c-3,0-5.8,1.1-8,3L37.1,36.7H19.1
		C8.8,36.7,0.5,45,0.5,55.3v28.5c0,3.2,2.6,5.7,5.7,5.7H16c3.7,9.4,14.2,14.1,23.6,10.4c4.8-1.9,8.5-5.6,10.4-10.4h82.1
		c3.7,9.4,14.2,14.1,23.6,10.4c4.8-1.9,8.5-5.6,10.4-10.4h8.9c3.2,0,5.7-2.6,5.7-5.7V69.2C180.9,65.1,178.1,61.4,174.1,60.3
		L174.1,60.3z M163.5,41.9h5.3v5.2h-5.6v-4.9C163.2,42.1,163.3,41.9,163.5,41.9L163.5,41.9z M163.2,57.3v-4.9h5.6v5.2h-5.3
		C163.3,57.6,163.2,57.5,163.2,57.3C163.2,57.3,163.2,57.3,163.2,57.3L163.2,57.3z M105.4,16.3h5.3v20.3h-5.3V16.3z M84.7,16.3h15.5
		v20.3H61.3L84.7,16.3z M35.4,42v22.8c-7.2-1-14.3,2.5-18.1,8.8c-0.1,0-0.2,0-0.3,0H5.8V60.1H13c4.4,0,8-3.6,8-8c0-4.4-3.6-8-8-8
		h-1.2c2.2-1.4,4.7-2.2,7.3-2.2L35.4,42L35.4,42z M13,49.4c1.5,0,2.7,1.3,2.6,2.7c0,1.4-1.2,2.6-2.6,2.6H5.8
		c0.1-1.9,0.5-3.7,1.3-5.4H13z M6.2,84.2c-0.2,0-0.4-0.2-0.4-0.4v-4.9h9.4c-0.3,1.3-0.5,2.7-0.5,4c0,0.4,0,0.9,0.1,1.3H6.2z
		 M33,95.8c-7.2,0-13-5.8-13-13s5.8-13,13-13s13,5.8,13,13C46,90,40.2,95.8,33,95.8z M149.2,95.8c-7.2,0-13-5.8-13-13s5.8-13,13-13
		c7.2,0,13,5.8,13,13C162.2,90,156.4,95.8,149.2,95.8z M175.1,84.2h-7.7c0-0.4,0.1-0.9,0.1-1.3c0-1.4-0.2-2.7-0.5-4h8.5v4.9
		C175.6,84,175.4,84.2,175.1,84.2L175.1,84.2z"/>
	<path id="Path_244" d="M98.6,51.4c1.5,0,2.7-1.2,2.7-2.7c0-1.5-1.2-2.7-2.7-2.7h-5.1c-1.5,0-2.7,1.2-2.7,2.7c0,1.5,1.2,2.7,2.7,2.7
		H98.6z"/>
</g>
</svg>
